<svg version="1.1" xmlns="http://www.w3.org/2000/svg" xmlns:xlink="http://www.w3.org/1999/xlink" width="55.47098" height="22.28195" viewBox="0,0,55.47098,22.28195"><g transform="translate(-211.91543,-166.74379)"><g data-paper-data="{&quot;isPaintingLayer&quot;:true}" fill="none" fill-rule="nonzero" stroke="none" stroke-width="none" stroke-linecap="none" stroke-linejoin="miter" stroke-miterlimit="10" stroke-dasharray="" stroke-dashoffset="0" font-family="none" font-weight="none" font-size="none" text-anchor="none" style="mix-blend-mode: normal"><path d="M227.00324,178.27899l16.76291,-10.39254l21.25007,10.50879l-21.78481,9.50906z" data-paper-data="{&quot;origRot&quot;:0,&quot;origPos&quot;:null}" fill="none" stroke="#000000" stroke-width="2" stroke-linecap="round"/><path d="M232.90862,174.14058l-19.97134,1.46472l0.1395,5.99838l19.99459,-0.46499" data-paper-data="{&quot;origRot&quot;:0,&quot;origPos&quot;:null}" fill="none" stroke="#000000" stroke-width="2" stroke-linecap="round"/><path d="M222.10922,182.89403c-1.22964,0.0286 -2.27252,-0.83562 -2.50828,-2.00046c-0.17263,0.04216 -0.35244,0.06644 -0.53741,0.07075c-0.56265,0.01308 -1.0862,-0.16076 -1.51122,-0.46481c-0.41042,0.32347 -0.92532,0.52147 -1.48797,0.53456c-1.38034,0.0321 -2.52535,-1.06086 -2.55745,-2.4412c-0.00398,-0.17119 0.00934,-0.33875 0.03837,-0.50103c-0.03654,-0.16075 -0.05764,-0.32752 -0.06162,-0.4987c-0.0321,-1.38034 1.06086,-2.52535 2.4412,-2.55745c0.56265,-0.01308 1.0862,0.16076 1.51122,0.46481c0.41042,-0.32347 0.92532,-0.52147 1.48797,-0.53456c0.81758,-0.01901 1.5526,0.35667 2.0227,0.95299c0.44188,-0.61753 1.15864,-1.02697 1.97622,-1.04599c0.63521,-0.01477 1.22059,0.20871 1.67061,0.58882c0.33182,-0.95845 1.23153,-1.65658 2.30506,-1.68155c1.38034,-0.0321 2.52535,1.06086 2.55745,2.4412c0.00827,0.35546 -0.05807,0.69531 -0.18472,1.00457c0.14088,0.30304 0.22295,0.63944 0.23122,0.99489c0.0321,1.38034 -1.06086,2.52535 -2.4412,2.55745c-0.56265,0.01308 -1.0862,-0.16076 -1.51122,-0.46481c-0.29631,0.23354 -0.64708,0.40167 -1.03095,0.48204c-0.18811,1.16661 -1.18608,2.07002 -2.40998,2.09848z" data-paper-data="{&quot;origRot&quot;:0,&quot;origPos&quot;:null}" fill="#000000" stroke="none" stroke-width="0.5" stroke-linecap="butt"/></g></g></svg>