<svg version="1.1" xmlns="http://www.w3.org/2000/svg" xmlns:xlink="http://www.w3.org/1999/xlink" width="55.47097" height="22.28196" viewBox="0,0,55.47097,22.28196"><g transform="translate(-210.56709,-166.74379)"><g data-paper-data="{&quot;isPaintingLayer&quot;:true}" fill="none" fill-rule="nonzero" stroke="none" stroke-width="none" stroke-linecap="none" stroke-linejoin="miter" stroke-miterlimit="10" stroke-dasharray="" stroke-dashoffset="0" font-family="none" font-weight="none" font-size="none" text-anchor="none" style="mix-blend-mode: normal"><path d="M234.72208,187.9043l-21.78481,-9.50906l21.25007,-10.50878l16.76291,10.39254z" data-paper-data="{&quot;origRot&quot;:0,&quot;index&quot;:null,&quot;origPos&quot;:null}" fill="none" stroke="#000000" stroke-width="2" stroke-linecap="round"/><path d="M245.04487,174.14058l19.97135,1.46472l-0.1395,5.99838l-19.9946,-0.46499" data-paper-data="{&quot;origRot&quot;:0,&quot;index&quot;:null,&quot;origPos&quot;:null}" fill="none" stroke="#000000" stroke-width="2" stroke-linecap="round"/><path d="M253.4343,180.79555c-0.38387,-0.08036 -0.73464,-0.2485 -1.03095,-0.48203c-0.42502,0.30404 -0.94857,0.47789 -1.51122,0.46481c-1.38034,-0.0321 -2.4733,-1.17711 -2.4412,-2.55745c0.00826,-0.35546 0.09033,-0.69186 0.23121,-0.9949c-0.12664,-0.30926 -0.19298,-0.64911 -0.18472,-1.00456c0.0321,-1.38034 1.17711,-2.4733 2.55745,-2.4412c1.07353,0.02497 1.97324,0.72309 2.30506,1.68154c0.45002,-0.3801 1.0354,-0.60358 1.67061,-0.58881c0.81758,0.01901 1.53434,0.42846 1.97621,1.04598c0.4701,-0.59632 1.20512,-0.972 2.0227,-0.95299c0.56265,0.01308 1.07756,0.21109 1.48798,0.53456c0.42502,-0.30404 0.94857,-0.47789 1.51121,-0.46481c1.38034,0.0321 2.4733,1.17711 2.4412,2.55745c-0.00398,0.17118 -0.02508,0.33795 -0.06162,0.4987c0.02903,0.16228 0.04235,0.32985 0.03837,0.50103c-0.0321,1.38034 -1.1771,2.4733 -2.55745,2.4412c-0.56265,-0.01308 -1.07755,-0.21108 -1.48798,-0.53456c-0.42501,0.30405 -0.94856,0.47789 -1.51121,0.46481c-0.18497,-0.0043 -0.36478,-0.02859 -0.53741,-0.07074c-0.23576,1.16484 -1.27864,2.02905 -2.50828,2.00045c-1.2239,-0.02846 -2.22187,-0.93187 -2.40998,-2.09848z" data-paper-data="{&quot;origRot&quot;:0,&quot;index&quot;:null,&quot;origPos&quot;:null}" fill="#000000" stroke="none" stroke-width="0.5" stroke-linecap="butt"/></g></g></svg>